<?xml version="1.0" encoding="UTF-8"?>

<svg xmlns="http://www.w3.org/2000/svg" version="1.1"
	width="420mm"
	height="297mm"
	viewBox="0 0 420 297">
	<!-- Working space 0 0 420 297 -->
	<defs>
		<radialGradient
			id="radialGradient3661"
			gradientUnits="userSpaceOnUse"
			cy="29.149"
			cx="282.65"
			gradientTransform="matrix(.14777 .23089 -.24680 .15795 -26.318 -62.617)"
			r="19.571">
				<stop stop-color="#71b2f8" offset="0"/>
				<stop stop-color="#002795" offset="1"/>
		</radialGradient>
		<radialGradient
			id="radialGradient3817"
			gradientUnits="userSpaceOnUse"
			cy="33.9"
			cx="270.58"
			gradientTransform="matrix(.26631 .065024 -.17931 .73438 -60.668 -36.938)"
			r="19.571">
				<stop stop-color="#ff6d0f" offset="0"/>
				<stop stop-color="#ff1000" offset="1"/>
		</radialGradient>
	</defs>
	<!-- Set display:none to hide FreeCAD Logo -->
	<g
		style="display:inline"
		id="freecad-logo"
		transform="translate(386, 264) scale(1.5)"
		fill-rule="evenodd"
		stroke-width=".45621">
		<path d="m0.22811 0.22835v13.256h2.9558v-5.1876h2.09v-2.0452h-2.09v-2.2075h5.1486v-3.8087l-8.1044-0.0075z"
			stroke="#370700"
			fill="url(#radialGradient3817)"/>
		<path d="m13.386 4.1792-1.7193 0.98645-0.75925-0.26348-0.72439-1.8513-1.1395 0.05988-0.51976 1.9144-0.72743 0.34835-1.8143-0.79367-0.76632 0.85156 0.98645 1.7193-0.26957 0.75702-1.8513 0.72439 0.065967 1.1417 1.9144 0.51976 0.34835 0.72743-0.79976 1.8121 0.85156 0.76632 1.7193-0.98645 0.76311 0.27179 0.7183 1.8491 1.1478-0.06375 0.51367-1.9166 0.72743-0.34835 1.8182 0.80198 0.76632-0.85156-0.98645-1.7193 0.2657-0.76533 1.8491-0.7183-0.05766-1.1456-1.9166-0.51367-0.34835-0.72743 0.7959-1.8204-0.85156-0.76632zm-2.5751 2.8195 0.35295 0.20478 0.30579 0.27725 0.24481 0.33087 0.17611 0.36787 0.10354 0.39656 0.01715 0.4064-0.0587 0.4063-0.13396 0.38571-0.2131 0.35681-0.26894 0.30192-0.33087 0.24481-0.36787 0.17611-0.39656 0.10354-0.40863 0.02325-0.4063-0.0587-0.38571-0.13396-0.35681-0.2131-0.2997-0.27503-0.24703-0.32478-0.17611-0.36787-0.10132-0.40264-0.02324-0.40863 0.05869-0.4063 0.13396-0.38571 0.21087-0.35072 0.27116-0.30801 0.33087-0.24481 0.36787-0.17611 0.40264-0.10132 0.40641-0.01715 0.4063 0.05869 0.38571 0.13396z" 
		stroke="#000137"
		fill="url(#radialGradient3661)"/>
	</g>
<g id="Ortho_0_0"
   transform="rotate(-90,65,198.5) translate(65,198.5) scale(1,1)"
  >
<g   stroke="rgb(0, 0, 0)"
   stroke-width="0.35"
   stroke-linecap="butt"
   stroke-linejoin="miter"
   fill="none"
   transform="scale(1,-1)"
  >
<path d="M31.4686 -277.522 A20 20 0 0 1 68.5314 -277.522" /><path id= "2" d=" M -2.15383e-014 -200 L 31.4686 -277.522 " />
<path id= "3" d=" M 100 -200 L 68.5314 -277.522 " />
<path id= "4" d=" M -1.55431e-015 -200 L 6 -200 " />
<path id= "5" d=" M 94 -200 L 100 -200 " />
<path id= "6" d=" M 6 -200 L 6 -180 " />
<path id= "7" d=" M 94 -180 L 94 -200 " />
<path id= "8" d=" M 6 -180 L 8.88178e-016 -180 " />
<path id= "9" d=" M 100 -180 L 94 -180 " />
<path id= "10" d=" M -1.65423e-014 -155 L -1.93179e-014 -180 " />
<path id= "11" d=" M 100 -180 L 100 -155 " />
<path id= "12" d=" M -1.55431e-015 -155 L 6 -155 " />
<path id= "13" d=" M 94 -155 L 100 -155 " />
<path id= "14" d=" M 6 -155 L 6 -135 " />
<path id= "15" d=" M 94 -135 L 94 -155 " />
<path id= "16" d=" M 6 -135 L 8.88178e-016 -135 " />
<path id= "17" d=" M 100 -135 L 94 -135 " />
<path id= "18" d=" M -1.15463e-014 -110 L -1.43219e-014 -135 " />
<path id= "19" d=" M 100 -135 L 100 -110 " />
<path id= "20" d=" M -1.55431e-015 -110 L 6 -110 " />
<path id= "21" d=" M 94 -110 L 100 -110 " />
<path id= "22" d=" M 6 -110 L 6 -90 " />
<path id= "23" d=" M 94 -90 L 94 -110 " />
<path id= "24" d=" M 6 -90 L 8.88178e-016 -90 " />
<path id= "25" d=" M 100 -90 L 94 -90 " />
<path id= "26" d=" M -6.55032e-015 -65 L -9.32587e-015 -90 " />
<path id= "27" d=" M 100 -90 L 100 -65 " />
<path id= "28" d=" M -1.55431e-015 -65 L 6 -65 " />
<path id= "29" d=" M 94 -65 L 100 -65 " />
<path id= "30" d=" M 6 -65 L 6 -45 " />
<path id= "31" d=" M 94 -45 L 94 -65 " />
<path id= "32" d=" M 6 -45 L 8.88178e-016 -45 " />
<path id= "33" d=" M 100 -45 L 94 -45 " />
<path id= "34" d=" M -1.55431e-015 -20 L -4.32987e-015 -45 " />
<path id= "35" d=" M 100 -45 L 100 -20 " />
<path id= "36" d=" M -1.55431e-015 -20 L 6 -20 " />
<path id= "37" d=" M 94 -20 L 100 -20 " />
<path id= "38" d=" M 6 -20 L 6 0 " />
<path id= "39" d=" M 94 0 L 94 -20 " />
<path id= "40" d=" M 94 -1.04361e-014 L 6 -6.66134e-016 " />
<circle cx ="69" cy ="-159" r ="2" /><circle cx ="50" cy ="-140" r ="21.5" /><circle cx ="31" cy ="-159" r ="2" /><path id= "44" d=" M 60 -11 L 80 -11 " />
<path id= "45" d=" M 60 -11 L 60 -5 " />
<path id= "46" d=" M 80 -11 L 80 -5 " />
<path id= "47" d=" M 60 -5 L 80 -5 " />
<circle cx ="31" cy ="-41" r ="2" /><circle cx ="50" cy ="-60" r ="21.5" /><circle cx ="69" cy ="-41" r ="2" /><circle cx ="31" cy ="-79" r ="2" /><circle cx ="69" cy ="-79" r ="2" /><circle cx ="31" cy ="-121" r ="2" /><circle cx ="69" cy ="-121" r ="2" /><path id= "55" d=" M 20 -11 L 20 -5 " />
<path id= "56" d=" M 20 -11 L 40 -11 " />
<path id= "57" d=" M 20 -5 L 40 -5 " />
<path id= "58" d=" M 40 -11 L 40 -5 " />
<path id= "59" d=" M 60 -189 L 80 -189 " />
<path id= "60" d=" M 80 -195 L 80 -189 " />
<path id= "61" d=" M 60 -195 L 80 -195 " />
<path id= "62" d=" M 60 -195 L 60 -189 " />
<path id= "63" d=" M 20 -195 L 40 -195 " />
<path id= "64" d=" M 20 -195 L 20 -189 " />
<path id= "65" d=" M 20 -189 L 40 -189 " />
<path id= "66" d=" M 40 -195 L 40 -189 " />
<circle cx ="50" cy ="-270" r ="5" /></g>
</g>



</svg>

