<?xml version="1.0" encoding="UTF-8"?>

<svg xmlns="http://www.w3.org/2000/svg" version="1.1"
	width="420mm"
	height="297mm"
	viewBox="0 0 420 297">
	<!-- Working space 0 0 420 297 -->
	<defs>
		<radialGradient
			id="radialGradient3661"
			gradientUnits="userSpaceOnUse"
			cy="29.149"
			cx="282.65"
			gradientTransform="matrix(.14777 .23089 -.24680 .15795 -26.318 -62.617)"
			r="19.571">
				<stop stop-color="#71b2f8" offset="0"/>
				<stop stop-color="#002795" offset="1"/>
		</radialGradient>
		<radialGradient
			id="radialGradient3817"
			gradientUnits="userSpaceOnUse"
			cy="33.9"
			cx="270.58"
			gradientTransform="matrix(.26631 .065024 -.17931 .73438 -60.668 -36.938)"
			r="19.571">
				<stop stop-color="#ff6d0f" offset="0"/>
				<stop stop-color="#ff1000" offset="1"/>
		</radialGradient>
	</defs>
	<!-- Set display:none to hide FreeCAD Logo -->
	<g
		style="display:inline"
		id="freecad-logo"
		transform="translate(386, 264) scale(1.5)"
		fill-rule="evenodd"
		stroke-width=".45621">
		<path d="m0.22811 0.22835v13.256h2.9558v-5.1876h2.09v-2.0452h-2.09v-2.2075h5.1486v-3.8087l-8.1044-0.0075z"
			stroke="#370700"
			fill="url(#radialGradient3817)"/>
		<path d="m13.386 4.1792-1.7193 0.98645-0.75925-0.26348-0.72439-1.8513-1.1395 0.05988-0.51976 1.9144-0.72743 0.34835-1.8143-0.79367-0.76632 0.85156 0.98645 1.7193-0.26957 0.75702-1.8513 0.72439 0.065967 1.1417 1.9144 0.51976 0.34835 0.72743-0.79976 1.8121 0.85156 0.76632 1.7193-0.98645 0.76311 0.27179 0.7183 1.8491 1.1478-0.06375 0.51367-1.9166 0.72743-0.34835 1.8182 0.80198 0.76632-0.85156-0.98645-1.7193 0.2657-0.76533 1.8491-0.7183-0.05766-1.1456-1.9166-0.51367-0.34835-0.72743 0.7959-1.8204-0.85156-0.76632zm-2.5751 2.8195 0.35295 0.20478 0.30579 0.27725 0.24481 0.33087 0.17611 0.36787 0.10354 0.39656 0.01715 0.4064-0.0587 0.4063-0.13396 0.38571-0.2131 0.35681-0.26894 0.30192-0.33087 0.24481-0.36787 0.17611-0.39656 0.10354-0.40863 0.02325-0.4063-0.0587-0.38571-0.13396-0.35681-0.2131-0.2997-0.27503-0.24703-0.32478-0.17611-0.36787-0.10132-0.40264-0.02324-0.40863 0.05869-0.4063 0.13396-0.38571 0.21087-0.35072 0.27116-0.30801 0.33087-0.24481 0.36787-0.17611 0.40264-0.10132 0.40641-0.01715 0.4063 0.05869 0.38571 0.13396z" 
		stroke="#000137"
		fill="url(#radialGradient3661)"/>
	</g>
<g id="Ortho_0_0"
   transform="rotate(0,75,248.5) translate(75,248.5) scale(1,1)"
  >
<g   stroke="rgb(0, 0, 0)"
   stroke-width="0.35"
   stroke-linecap="butt"
   stroke-linejoin="miter"
   fill="none"
   transform="scale(1,-1)"
  >
<path id= "1" d=" M 5 0 L 265 0 " />
<path d="M-15 20 A20 20 0 0 1 5 0" /><path d="M265 0 A20 20 0 0 1 285 20" /><path id= "4" d=" M -15 180 L -15 20 " />
<path id= "5" d=" M 285 20 L 285 180 " />
<path d="M5 200 A20 20 0 0 1 -15 180" /><path d="M285 180 A20 20 0 0 1 265 200" /><path id= "8" d=" M 5 200 L 11 200 " />
<path id= "9" d=" M 259 200 L 265 200 " />
<path id= "10" d=" M 259 200 L 11 200 " />
<circle cx ="15" cy ="15" r ="2.5" /><circle cx ="255" cy ="15" r ="2.5" /><path id= "13" d=" M 125 11 L 125 5 " />
<path id= "14" d=" M 125 11 L 105 11 " />
<path id= "15" d=" M 125 5 L 105 5 " />
<path id= "16" d=" M 105 11 L 105 5 " />
<path id= "17" d=" M 85 5 L 65 5 " />
<path id= "18" d=" M 85 11 L 85 5 " />
<path id= "19" d=" M 65 11 L 65 5 " />
<path id= "20" d=" M 85 11 L 65 11 " />
<path id= "21" d=" M 45 11 L 45 5 " />
<path id= "22" d=" M 45 11 L 25 11 " />
<path id= "23" d=" M 45 5 L 25 5 " />
<path id= "24" d=" M 25 11 L 25 5 " />
<path id= "25" d=" M 205 5 L 185 5 " />
<path id= "26" d=" M 205 11 L 205 5 " />
<path id= "27" d=" M 185 11 L 185 5 " />
<path id= "28" d=" M 205 11 L 185 11 " />
<path id= "29" d=" M 165 11 L 165 5 " />
<path id= "30" d=" M 165 11 L 145 11 " />
<path id= "31" d=" M 165 5 L 145 5 " />
<path id= "32" d=" M 145 11 L 145 5 " />
<path id= "33" d=" M 245 11 L 245 5 " />
<path id= "34" d=" M 245 11 L 225 11 " />
<path id= "35" d=" M 245 5 L 225 5 " />
<path id= "36" d=" M 225 11 L 225 5 " />
<path id= "37" d=" M 11 135 L 11 110 " />
<path id= "38" d=" M 5 135 L 11 135 " />
<path id= "39" d=" M 5 110 L 11 110 " />
<path id= "40" d=" M 5 135 L 5 110 " />
<path id= "41" d=" M 11 90 L 11 65 " />
<path id= "42" d=" M 5 90 L 11 90 " />
<path id= "43" d=" M 5 65 L 11 65 " />
<path id= "44" d=" M 5 90 L 5 65 " />
<path id= "45" d=" M 5 45 L 11 45 " />
<path id= "46" d=" M 5 45 L 5 20 " />
<path id= "47" d=" M 11 45 L 11 20 " />
<path id= "48" d=" M 5 20 L 11 20 " />
<path id= "49" d=" M 165 195 L 165 189 " />
<path id= "50" d=" M 165 195 L 145 195 " />
<path id= "51" d=" M 165 189 L 145 189 " />
<path id= "52" d=" M 145 195 L 145 189 " />
<path id= "53" d=" M 245 195 L 245 189 " />
<path id= "54" d=" M 245 195 L 225 195 " />
<path id= "55" d=" M 245 189 L 225 189 " />
<path id= "56" d=" M 225 195 L 225 189 " />
<path id= "57" d=" M 205 195 L 185 195 " />
<path id= "58" d=" M 205 195 L 205 189 " />
<path id= "59" d=" M 185 195 L 185 189 " />
<path id= "60" d=" M 205 189 L 185 189 " />
<path id= "61" d=" M 5 180 L 5 155 " />
<path id= "62" d=" M 5 180 L 11 180 " />
<path id= "63" d=" M 5 155 L 11 155 " />
<path id= "64" d=" M 11 180 L 11 155 " />
<circle cx ="15" cy ="185" r ="2.5" /><path id= "66" d=" M 45 195 L 45 189 " />
<path id= "67" d=" M 45 195 L 25 195 " />
<path id= "68" d=" M 45 189 L 25 189 " />
<path id= "69" d=" M 25 195 L 25 189 " />
<path id= "70" d=" M 85 195 L 65 195 " />
<path id= "71" d=" M 85 195 L 85 189 " />
<path id= "72" d=" M 65 195 L 65 189 " />
<path id= "73" d=" M 85 189 L 65 189 " />
<path id= "74" d=" M 125 195 L 105 195 " />
<path id= "75" d=" M 125 195 L 125 189 " />
<path id= "76" d=" M 105 195 L 105 189 " />
<path id= "77" d=" M 125 189 L 105 189 " />
<circle cx ="255" cy ="185" r ="2.5" /><path id= "79" d=" M 15 175 L 15 25 " />
<path id= "80" d=" M 25 185 L 15 175 " />
<path id= "81" d=" M 15 25 L 25 15 " />
<path id= "82" d=" M 245 185 L 25 185 " />
<path id= "83" d=" M 25 15 L 245 15 " />
<path id= "84" d=" M 255 175 L 245 185 " />
<path id= "85" d=" M 245 15 L 255 25 " />
<path id= "86" d=" M 255 25 L 255 175 " />
<path id= "87" d=" M 259 45 L 259 20 " />
<path id= "88" d=" M 259 45 L 265 45 " />
<path id= "89" d=" M 265 45 L 265 20 " />
<path id= "90" d=" M 259 20 L 265 20 " />
<path id= "91" d=" M 265 90 L 265 65 " />
<path id= "92" d=" M 259 65 L 265 65 " />
<path id= "93" d=" M 259 90 L 259 65 " />
<path id= "94" d=" M 259 90 L 265 90 " />
<path id= "95" d=" M 259 135 L 265 135 " />
<path id= "96" d=" M 265 135 L 265 110 " />
<path id= "97" d=" M 259 110 L 265 110 " />
<path id= "98" d=" M 259 135 L 259 110 " />
<path id= "99" d=" M 265 180 L 265 155 " />
<path id= "100" d=" M 259 155 L 265 155 " />
<path id= "101" d=" M 259 180 L 259 155 " />
<path id= "102" d=" M 259 180 L 265 180 " />
</g>
</g>



</svg>

