<?xml version="1.0" encoding="UTF-8"?>

<svg xmlns="http://www.w3.org/2000/svg" version="1.1"
	width="420mm"
	height="297mm"
	viewBox="0 0 420 297">
	<!-- Working space 0 0 420 297 -->
	<defs>
		<radialGradient
			id="radialGradient3661"
			gradientUnits="userSpaceOnUse"
			cy="29.149"
			cx="282.65"
			gradientTransform="matrix(.14777 .23089 -.24680 .15795 -26.318 -62.617)"
			r="19.571">
				<stop stop-color="#71b2f8" offset="0"/>
				<stop stop-color="#002795" offset="1"/>
		</radialGradient>
		<radialGradient
			id="radialGradient3817"
			gradientUnits="userSpaceOnUse"
			cy="33.9"
			cx="270.58"
			gradientTransform="matrix(.26631 .065024 -.17931 .73438 -60.668 -36.938)"
			r="19.571">
				<stop stop-color="#ff6d0f" offset="0"/>
				<stop stop-color="#ff1000" offset="1"/>
		</radialGradient>
	</defs>
	<!-- Set display:none to hide FreeCAD Logo -->
	<g
		style="display:inline"
		id="freecad-logo"
		transform="translate(386, 264) scale(1.5)"
		fill-rule="evenodd"
		stroke-width=".45621">
		<path d="m0.22811 0.22835v13.256h2.9558v-5.1876h2.09v-2.0452h-2.09v-2.2075h5.1486v-3.8087l-8.1044-0.0075z"
			stroke="#370700"
			fill="url(#radialGradient3817)"/>
		<path d="m13.386 4.1792-1.7193 0.98645-0.75925-0.26348-0.72439-1.8513-1.1395 0.05988-0.51976 1.9144-0.72743 0.34835-1.8143-0.79367-0.76632 0.85156 0.98645 1.7193-0.26957 0.75702-1.8513 0.72439 0.065967 1.1417 1.9144 0.51976 0.34835 0.72743-0.79976 1.8121 0.85156 0.76632 1.7193-0.98645 0.76311 0.27179 0.7183 1.8491 1.1478-0.06375 0.51367-1.9166 0.72743-0.34835 1.8182 0.80198 0.76632-0.85156-0.98645-1.7193 0.2657-0.76533 1.8491-0.7183-0.05766-1.1456-1.9166-0.51367-0.34835-0.72743 0.7959-1.8204-0.85156-0.76632zm-2.5751 2.8195 0.35295 0.20478 0.30579 0.27725 0.24481 0.33087 0.17611 0.36787 0.10354 0.39656 0.01715 0.4064-0.0587 0.4063-0.13396 0.38571-0.2131 0.35681-0.26894 0.30192-0.33087 0.24481-0.36787 0.17611-0.39656 0.10354-0.40863 0.02325-0.4063-0.0587-0.38571-0.13396-0.35681-0.2131-0.2997-0.27503-0.24703-0.32478-0.17611-0.36787-0.10132-0.40264-0.02324-0.40863 0.05869-0.4063 0.13396-0.38571 0.21087-0.35072 0.27116-0.30801 0.33087-0.24481 0.36787-0.17611 0.40264-0.10132 0.40641-0.01715 0.4063 0.05869 0.38571 0.13396z" 
		stroke="#000137"
		fill="url(#radialGradient3661)"/>
	</g>
<g id="Ortho_0_0"
   transform="rotate(0,75,248.5) translate(75,248.5) scale(1,1)"
  >
<g   stroke="rgb(0, 0, 0)"
   stroke-width="0.35"
   stroke-linecap="butt"
   stroke-linejoin="miter"
   fill="none"
   transform="scale(1,-1)"
  >
<path id= "1" d=" M 5 1.41753e-012 L 265 1.41753e-012 " />
<path d="M-15 20 A20 20 0 0 1 5 6.57252e-013" /><path d="M265 1.41753e-012 A20 20 0 0 1 285 20" /><path id= "4" d=" M -15 180 L -15 20 " />
<path id= "5" d=" M 285 20 L 285 180 " />
<path d="M5 200 A20 20 0 0 1 -15 180" /><path d="M285 180 A20 20 0 0 1 265 200" /><path id= "8" d=" M 265 200 L 5 200 " />
<circle cx ="255" cy ="185" r ="2.5" /><circle cx ="238.48" cy ="162.38" r ="1.5" /><circle cx ="135" cy ="162.38" r ="1.5" /><circle cx ="199.59" cy ="133.8" r ="1.5" /><circle cx ="255" cy ="15" r ="2.5" /><circle cx ="238.48" cy ="37.62" r ="1.5" /><circle cx ="238.48" cy ="100" r ="1.5" /><circle cx ="199.59" cy ="68.15" r ="1.5" /><circle cx ="73.39" cy ="68.15" r ="1.5" /><circle cx ="73.39" cy ="133.8" r ="1.5" /><path id= "19" d=" M 90 150 L 180 150 " />
<path d="M80 140 A10 10 0 0 0 90 150" /><path d="M180 150 A10 10 0 0 0 190 140" /><path id= "22" d=" M 80 60 L 80 140 " />
<path id= "23" d=" M 190 140 L 190 60 " />
<path d="M90 50 A10 10 0 0 0 80 60" /><path d="M190 60 A10 10 0 0 0 180 50" /><path id= "26" d=" M 180 50 L 90 50 " />
<circle cx ="83.26" cy ="37.62" r ="1.5" /><circle cx ="135" cy ="37.62" r ="1.5" /><circle cx ="186.74" cy ="37.62" r ="1.5" /><circle cx ="83.26" cy ="162.38" r ="1.5" /><circle cx ="186.74" cy ="162.38" r ="1.5" /><circle cx ="15" cy ="185" r ="2.5" /><circle cx ="31.52" cy ="162.38" r ="1.5" /><circle cx ="31.52" cy ="37.62" r ="1.5" /><circle cx ="31.52" cy ="100" r ="1.5" /><circle cx ="15" cy ="15" r ="2.5" /></g>
</g>



</svg>

